<svg width="160" height="48" viewBox="0 0 160 48" fill="none" xmlns="http://www.w3.org/2000/svg">
<rect width="48" height="48" rx="16" fill="#5081FB" fill-opacity="0.16"/>
<g opacity="0.48">
<path d="M17 23C18.1031 23 19 22.1031 19 21C19 19.8969 18.1031 19 17 19C15.8969 19 15 19.8969 15 21C15 22.1031 15.8969 23 17 23ZM31 23C32.1031 23 33 22.1031 33 21C33 19.8969 32.1031 19 31 19C29.8969 19 29 19.8969 29 21C29 22.1031 29.8969 23 31 23ZM32 24H30C29.45 24 28.9531 24.2219 28.5906 24.5813C29.85 25.2719 30.7438 26.5187 30.9375 28H33C33.5531 28 34 27.5531 34 27V26C34 24.8969 33.1031 24 32 24ZM24 24C25.9344 24 27.5 22.4344 27.5 20.5C27.5 18.5656 25.9344 17 24 17C22.0656 17 20.5 18.5656 20.5 20.5C20.5 22.4344 22.0656 24 24 24ZM26.4 25H26.1406C25.4906 25.3125 24.7688 25.5 24 25.5C23.2312 25.5 22.5125 25.3125 21.8594 25H21.6C19.6125 25 18 26.6125 18 28.6V29.5C18 30.3281 18.6719 31 19.5 31H28.5C29.3281 31 30 30.3281 30 29.5V28.6C30 26.6125 28.3875 25 26.4 25ZM19.4094 24.5813C19.0469 24.2219 18.55 24 18 24H16C14.8969 24 14 24.8969 14 26V27C14 27.5531 14.4469 28 15 28H17.0594C17.2563 26.5187 18.15 25.2719 19.4094 24.5813Z" fill="white"/>
</g>
<path opacity="0.56" d="M74.7727 22C74.3409 19.6136 72.4318 18.2045 70.0909 18.2045C67.1136 18.2045 64.9545 20.5 64.9545 24.1818C64.9545 27.8636 67.1136 30.1591 70.0909 30.1591C72.4318 30.1591 74.3409 28.75 74.7727 26.3636H73.3636C73.0227 27.9773 71.6364 28.8409 70.0909 28.8409C67.9773 28.8409 66.3182 27.2045 66.3182 24.1818C66.3182 21.1591 67.9773 19.5227 70.0909 19.5227C71.6364 19.5227 73.0227 20.3864 73.3636 22H74.7727ZM80.4134 30.1818C82.777 30.1818 84.3679 28.3864 84.3679 25.6818C84.3679 22.9545 82.777 21.1591 80.4134 21.1591C78.0497 21.1591 76.4588 22.9545 76.4588 25.6818C76.4588 28.3864 78.0497 30.1818 80.4134 30.1818ZM80.4134 28.9773C78.6179 28.9773 77.7997 27.4318 77.7997 25.6818C77.7997 23.9318 78.6179 22.3636 80.4134 22.3636C82.2088 22.3636 83.027 23.9318 83.027 25.6818C83.027 27.4318 82.2088 28.9773 80.4134 28.9773ZM86.4148 30H87.7557V24.5455C87.7557 23.267 88.6875 22.3636 89.733 22.3636C90.75 22.3636 91.4602 23.0284 91.4602 24.0227V30H92.8239V24.3182C92.8239 23.1932 93.5284 22.3636 94.7557 22.3636C95.7102 22.3636 96.5284 22.8693 96.5284 24.1591V30H97.8693V24.1591C97.8693 22.108 96.767 21.1591 95.2102 21.1591C93.9602 21.1591 93.0455 21.733 92.5966 22.6364H92.5057C92.0739 21.7045 91.3125 21.1591 90.1648 21.1591C89.0284 21.1591 88.1875 21.7045 87.8239 22.6364H87.7102V21.2727H86.4148V30ZM105.821 26.4318C105.821 28.0682 104.571 28.8182 103.571 28.8182C102.457 28.8182 101.662 28 101.662 26.7273V21.2727H100.321V26.8182C100.321 29.0455 101.503 30.1136 103.139 30.1136C104.457 30.1136 105.321 29.4091 105.73 28.5227H105.821V30H107.162V21.2727H105.821V26.4318ZM110.959 24.75C110.959 23.2273 111.902 22.3636 113.186 22.3636C114.43 22.3636 115.186 23.1761 115.186 24.5455V30H116.527V24.4545C116.527 22.2273 115.339 21.1591 113.572 21.1591C112.254 21.1591 111.436 21.75 111.027 22.6364H110.913V21.2727H109.618V30H110.959V24.75ZM118.977 30H120.318V21.2727H118.977V30ZM119.659 19.8182C120.182 19.8182 120.614 19.4091 120.614 18.9091C120.614 18.4091 120.182 18 119.659 18C119.136 18 118.705 18.4091 118.705 18.9091C118.705 19.4091 119.136 19.8182 119.659 19.8182ZM126.07 30.1818C127.751 30.1818 128.32 29.1364 128.615 28.6591H128.774V30H130.07V18.3636H128.729V22.6591H128.615C128.32 22.2045 127.797 21.1591 126.092 21.1591C123.888 21.1591 122.365 22.9091 122.365 25.6591C122.365 28.4318 123.888 30.1818 126.07 30.1818ZM126.251 28.9773C124.57 28.9773 123.706 27.5 123.706 25.6364C123.706 23.7955 124.547 22.3636 126.251 22.3636C127.888 22.3636 128.751 23.6818 128.751 25.6364C128.751 27.6136 127.865 28.9773 126.251 28.9773ZM135.28 30.2045C136.803 30.2045 137.598 29.3864 137.871 28.8182H137.939V30H139.28V24.25C139.28 21.4773 137.166 21.1591 136.053 21.1591C134.734 21.1591 133.234 21.6136 132.553 23.2045L133.825 23.6591C134.121 23.0227 134.82 22.3409 136.098 22.3409C137.331 22.3409 137.939 22.9943 137.939 24.1136V24.1591C137.939 24.8068 137.28 24.75 135.689 24.9545C134.07 25.1648 132.303 25.5227 132.303 27.5227C132.303 29.2273 133.621 30.2045 135.28 30.2045ZM135.484 29C134.416 29 133.643 28.5227 133.643 27.5909C133.643 26.5682 134.575 26.25 135.621 26.1136C136.189 26.0455 137.712 25.8864 137.939 25.6136V26.8409C137.939 27.9318 137.075 29 135.484 29ZM145.023 30.1818C146.705 30.1818 147.273 29.1364 147.568 28.6591H147.727V30H149.023V18.3636H147.682V22.6591H147.568C147.273 22.2045 146.75 21.1591 145.045 21.1591C142.841 21.1591 141.318 22.9091 141.318 25.6591C141.318 28.4318 142.841 30.1818 145.023 30.1818ZM145.205 28.9773C143.523 28.9773 142.659 27.5 142.659 25.6364C142.659 23.7955 143.5 22.3636 145.205 22.3636C146.841 22.3636 147.705 23.6818 147.705 25.6364C147.705 27.6136 146.818 28.9773 145.205 28.9773ZM155.324 30.1818C157.097 30.1818 158.392 29.2955 158.801 27.9773L157.506 27.6136C157.165 28.5227 156.375 28.9773 155.324 28.9773C153.75 28.9773 152.665 27.9602 152.602 26.0909H158.938V25.5227C158.938 22.2727 157.006 21.1591 155.188 21.1591C152.824 21.1591 151.256 23.0227 151.256 25.7045C151.256 28.3864 152.801 30.1818 155.324 30.1818ZM152.602 24.9318C152.693 23.5739 153.653 22.3636 155.188 22.3636C156.642 22.3636 157.574 23.4545 157.574 24.9318H152.602Z" fill="white"/>
</svg>
