<svg width="189" height="48" viewBox="0 0 189 48" fill="none" xmlns="http://www.w3.org/2000/svg">
<rect width="48" height="48" rx="16" fill="#5081FB"/>
<path d="M22.7157 31.9832L20.8096 31.4301C20.6096 31.3739 20.4971 31.1645 20.5534 30.9645L24.8187 16.2719C24.8749 16.0719 25.0843 15.9594 25.2843 16.0157L27.1904 16.5688C27.3904 16.625 27.5029 16.8344 27.4466 17.0344L23.1813 31.727C23.1219 31.9269 22.9157 32.0426 22.7157 31.9832ZM19.1535 28.4772L20.5128 27.0273C20.6565 26.8742 20.6471 26.6305 20.4878 26.4899L17.6567 23.9994L20.4878 21.509C20.6471 21.3684 20.6596 21.1247 20.5128 20.9715L19.1535 19.5217C19.0129 19.3717 18.7754 19.3623 18.6223 19.506L14.1195 23.7245C13.9602 23.8713 13.9602 24.1244 14.1195 24.2713L18.6223 28.4928C18.7754 28.6366 19.0129 28.6303 19.1535 28.4772ZM29.3777 28.496L33.8805 24.2744C34.0398 24.1275 34.0398 23.8744 33.8805 23.7276L29.3777 19.5029C29.2277 19.3623 28.9902 19.3685 28.8465 19.5185L27.4872 20.9684C27.3435 21.1215 27.3529 21.3653 27.5122 21.5059L30.3433 23.9994L27.5122 26.4899C27.3529 26.6305 27.3404 26.8742 27.4872 27.0273L28.8465 28.4772C28.9871 28.6303 29.2246 28.6366 29.3777 28.496Z" fill="white"/>
<path d="M65.4091 30H72.5227V28.75H66.8182V24.7955H72.0682V23.5455H66.8182V19.6136H72.4318V18.3636H65.4091V30ZM78.0852 30.1818C79.767 30.1818 80.3352 29.1364 80.6307 28.6591H80.7898V30H82.0852V18.3636H80.7443V22.6591H80.6307C80.3352 22.2045 79.8125 21.1591 78.108 21.1591C75.9034 21.1591 74.3807 22.9091 74.3807 25.6591C74.3807 28.4318 75.9034 30.1818 78.0852 30.1818ZM78.267 28.9773C76.5852 28.9773 75.7216 27.5 75.7216 25.6364C75.7216 23.7955 76.5625 22.3636 78.267 22.3636C79.9034 22.3636 80.767 23.6818 80.767 25.6364C80.767 27.6136 79.8807 28.9773 78.267 28.9773ZM84.7273 30H86.0682V21.2727H84.7273V30ZM85.4091 19.8182C85.9318 19.8182 86.3636 19.4091 86.3636 18.9091C86.3636 18.4091 85.9318 18 85.4091 18C84.8864 18 84.4545 18.4091 84.4545 18.9091C84.4545 19.4091 84.8864 19.8182 85.4091 19.8182ZM92.3196 21.2727H90.456V19.1818H89.1151V21.2727H87.7969V22.4091H89.1151V27.8636C89.1151 29.3864 90.3423 30.1136 91.4787 30.1136C91.9787 30.1136 92.2969 30.0227 92.4787 29.9545L92.206 28.75C92.0923 28.7727 91.9105 28.8182 91.6151 28.8182C91.0241 28.8182 90.456 28.6364 90.456 27.5V22.4091H92.3196V21.2727ZM97.7884 30.1818C100.152 30.1818 101.743 28.3864 101.743 25.6818C101.743 22.9545 100.152 21.1591 97.7884 21.1591C95.4247 21.1591 93.8338 22.9545 93.8338 25.6818C93.8338 28.3864 95.4247 30.1818 97.7884 30.1818ZM97.7884 28.9773C95.9929 28.9773 95.1747 27.4318 95.1747 25.6818C95.1747 23.9318 95.9929 22.3636 97.7884 22.3636C99.5838 22.3636 100.402 23.9318 100.402 25.6818C100.402 27.4318 99.5838 28.9773 97.7884 28.9773ZM103.79 30H105.131V24.4773C105.131 23.2955 106.062 22.4318 107.335 22.4318C107.693 22.4318 108.062 22.5 108.153 22.5227V21.1591C108 21.1477 107.648 21.1364 107.449 21.1364C106.403 21.1364 105.494 21.7273 105.176 22.5909H105.085V21.2727H103.79V30ZM117.538 30.1818C119.22 30.1818 119.788 29.1364 120.084 28.6591H120.243V30H121.538V18.3636H120.197V22.6591H120.084C119.788 22.2045 119.266 21.1591 117.561 21.1591C115.357 21.1591 113.834 22.9091 113.834 25.6591C113.834 28.4318 115.357 30.1818 117.538 30.1818ZM117.72 28.9773C116.038 28.9773 115.175 27.5 115.175 25.6364C115.175 23.7955 116.016 22.3636 117.72 22.3636C119.357 22.3636 120.22 23.6818 120.22 25.6364C120.22 27.6136 119.334 28.9773 117.72 28.9773ZM127.839 30.1818C129.612 30.1818 130.908 29.2955 131.317 27.9773L130.021 27.6136C129.68 28.5227 128.891 28.9773 127.839 28.9773C126.266 28.9773 125.18 27.9602 125.118 26.0909H131.453V25.5227C131.453 22.2727 129.521 21.1591 127.703 21.1591C125.339 21.1591 123.771 23.0227 123.771 25.7045C123.771 28.3864 125.317 30.1818 127.839 30.1818ZM125.118 24.9318C125.209 23.5739 126.169 22.3636 127.703 22.3636C129.158 22.3636 130.089 23.4545 130.089 24.9318H125.118ZM141.538 30.1818C143.47 30.1818 144.743 29 144.97 27.4545H143.629C143.379 28.4091 142.584 28.9773 141.538 28.9773C139.947 28.9773 138.925 27.6591 138.925 25.6364C138.925 23.6591 139.97 22.3636 141.538 22.3636C142.72 22.3636 143.425 23.0909 143.629 23.8864H144.97C144.743 22.25 143.357 21.1591 141.516 21.1591C139.152 21.1591 137.584 23.0227 137.584 25.6818C137.584 28.2955 139.084 30.1818 141.538 30.1818ZM150.476 30.1818C152.839 30.1818 154.43 28.3864 154.43 25.6818C154.43 22.9545 152.839 21.1591 150.476 21.1591C148.112 21.1591 146.521 22.9545 146.521 25.6818C146.521 28.3864 148.112 30.1818 150.476 30.1818ZM150.476 28.9773C148.68 28.9773 147.862 27.4318 147.862 25.6818C147.862 23.9318 148.68 22.3636 150.476 22.3636C152.271 22.3636 153.089 23.9318 153.089 25.6818C153.089 27.4318 152.271 28.9773 150.476 28.9773ZM149.862 20.0909H151.044L152.817 17.4545H151.249L149.862 20.0909ZM159.773 30.1818C161.455 30.1818 162.023 29.1364 162.318 28.6591H162.477V30H163.773V18.3636H162.432V22.6591H162.318C162.023 22.2045 161.5 21.1591 159.795 21.1591C157.591 21.1591 156.068 22.9091 156.068 25.6591C156.068 28.4318 157.591 30.1818 159.773 30.1818ZM159.955 28.9773C158.273 28.9773 157.409 27.5 157.409 25.6364C157.409 23.7955 158.25 22.3636 159.955 22.3636C161.591 22.3636 162.455 23.6818 162.455 25.6364C162.455 27.6136 161.568 28.9773 159.955 28.9773ZM166.415 30H167.756V21.2727H166.415V30ZM167.097 19.8182C167.619 19.8182 168.051 19.4091 168.051 18.9091C168.051 18.4091 167.619 18 167.097 18C166.574 18 166.142 18.4091 166.142 18.9091C166.142 19.4091 166.574 19.8182 167.097 19.8182ZM173.734 33.4545C175.825 33.4545 177.507 32.5 177.507 30.25V21.2727H176.212V22.6591H176.075C175.78 22.2045 175.234 21.1591 173.53 21.1591C171.325 21.1591 169.803 22.9091 169.803 25.5909C169.803 28.3182 171.393 29.8636 173.507 29.8636C175.212 29.8636 175.757 28.8636 176.053 28.3864H176.166V30.1591C176.166 31.6136 175.143 32.2727 173.734 32.2727C172.149 32.2727 171.592 31.4375 171.234 30.9545L170.166 31.7045C170.712 32.6193 171.786 33.4545 173.734 33.4545ZM173.689 28.6591C172.007 28.6591 171.143 27.3864 171.143 25.5682C171.143 23.7955 171.984 22.3636 173.689 22.3636C175.325 22.3636 176.189 23.6818 176.189 25.5682C176.189 27.5 175.303 28.6591 173.689 28.6591ZM183.507 30.1818C185.871 30.1818 187.462 28.3864 187.462 25.6818C187.462 22.9545 185.871 21.1591 183.507 21.1591C181.143 21.1591 179.553 22.9545 179.553 25.6818C179.553 28.3864 181.143 30.1818 183.507 30.1818ZM183.507 28.9773C181.712 28.9773 180.893 27.4318 180.893 25.6818C180.893 23.9318 181.712 22.3636 183.507 22.3636C185.303 22.3636 186.121 23.9318 186.121 25.6818C186.121 27.4318 185.303 28.9773 183.507 28.9773Z" fill="white"/>
</svg>
